<svg width="340" height="340" viewBox="0 0 340 340" fill="none" xmlns="http://www.w3.org/2000/svg">
<g filter="url(#filter0_i_272_807)">
<rect width="340" height="340" rx="24" fill="url(#paint0_linear_272_807)"/>
<rect width="340" height="340" rx="24" fill="black" fill-opacity="0.05"/>
<path d="M39.7145 287.628V296.143H35.63V276.506H39.5994V284.014H39.772C40.1044 283.144 40.6413 282.464 41.3828 281.971C42.1243 281.473 43.0543 281.224 44.1729 281.224C45.1957 281.224 46.0874 281.447 46.848 281.895C47.6151 282.336 48.2095 282.972 48.6314 283.803C49.0597 284.627 49.2706 285.615 49.2642 286.765V296.143H45.1797V287.494C45.1861 286.586 44.956 285.88 44.4893 285.375C44.0291 284.87 43.3835 284.618 42.5526 284.618C41.9964 284.618 41.5043 284.736 41.076 284.972C40.6541 285.209 40.3217 285.554 40.0788 286.008C39.8423 286.455 39.7209 286.996 39.7145 287.628ZM59.1903 296.43C57.6753 296.43 56.3714 296.123 55.2783 295.51C54.1917 294.89 53.3543 294.014 52.7662 292.883C52.1782 291.745 51.8841 290.399 51.8841 288.846C51.8841 287.331 52.1782 286.002 52.7662 284.857C53.3543 283.713 54.1821 282.822 55.2496 282.182C56.3234 281.543 57.5827 281.224 59.0273 281.224C59.9988 281.224 60.9033 281.38 61.7407 281.693C62.5844 282 63.3195 282.464 63.9459 283.084C64.5787 283.704 65.0709 284.483 65.4225 285.423C65.7741 286.356 65.9498 287.449 65.9498 288.702V289.824H53.5141V287.293H62.105C62.105 286.705 61.9772 286.184 61.7215 285.73C61.4658 285.276 61.1111 284.921 60.6572 284.666C60.2098 284.404 59.6888 284.273 59.0944 284.273C58.4743 284.273 57.9246 284.416 57.4452 284.704C56.9722 284.985 56.6015 285.366 56.333 285.845C56.0645 286.318 55.9271 286.845 55.9207 287.427V289.834C55.9207 290.562 56.055 291.192 56.3234 291.722C56.5983 292.253 56.985 292.662 57.4836 292.95C57.9822 293.237 58.5734 293.381 59.2574 293.381C59.7112 293.381 60.1267 293.317 60.5038 293.189C60.8809 293.062 61.2037 292.87 61.4722 292.614C61.7407 292.358 61.9452 292.045 62.0858 291.675L65.8635 291.924C65.6718 292.831 65.2787 293.624 64.6842 294.302C64.0961 294.973 63.3355 295.497 62.4023 295.874C61.4754 296.245 60.4047 296.43 59.1903 296.43ZM72.8149 296.421C71.8753 296.421 71.0379 296.258 70.3028 295.932C69.5677 295.599 68.9861 295.11 68.5578 294.465C68.1359 293.813 67.925 293.001 67.925 292.029C67.925 291.211 68.0752 290.524 68.3756 289.968C68.676 289.412 69.0851 288.964 69.6029 288.626C70.1206 288.287 70.7087 288.031 71.3671 287.858C72.0319 287.686 72.7286 287.564 73.4573 287.494C74.3138 287.405 75.0042 287.322 75.5283 287.245C76.0525 287.162 76.4328 287.04 76.6693 286.881C76.9058 286.721 77.0241 286.484 77.0241 286.171V286.113C77.0241 285.506 76.8323 285.036 76.4488 284.704C76.0716 284.372 75.5347 284.205 74.838 284.205C74.1029 284.205 73.518 284.368 73.0834 284.694C72.6487 285.014 72.3611 285.417 72.2204 285.903L68.4427 285.596C68.6345 284.701 69.0116 283.927 69.5741 283.275C70.1366 282.617 70.8621 282.112 71.7506 281.76C72.6455 281.403 73.681 281.224 74.8572 281.224C75.6753 281.224 76.4584 281.319 77.2062 281.511C77.9605 281.703 78.6285 282 79.2101 282.403C79.7982 282.806 80.2616 283.323 80.6004 283.956C80.9392 284.583 81.1086 285.334 81.1086 286.209V296.143H77.235V294.1H77.1199C76.8834 294.561 76.567 294.966 76.1707 295.318C75.7744 295.663 75.2982 295.935 74.7421 296.133C74.186 296.325 73.5436 296.421 72.8149 296.421ZM73.9846 293.602C74.5855 293.602 75.116 293.483 75.5763 293.247C76.0365 293.004 76.3976 292.678 76.6597 292.269C76.9218 291.86 77.0528 291.396 77.0528 290.879V289.316C76.925 289.399 76.7492 289.476 76.5255 289.546C76.3082 289.61 76.0621 289.671 75.7872 289.728C75.5123 289.779 75.2375 289.827 74.9626 289.872C74.6878 289.91 74.4385 289.945 74.2148 289.977C73.7354 290.048 73.3167 290.16 72.9587 290.313C72.6008 290.466 72.3227 290.674 72.1246 290.936C71.9264 291.192 71.8273 291.512 71.8273 291.895C71.8273 292.451 72.0287 292.876 72.4314 293.17C72.8405 293.458 73.3582 293.602 73.9846 293.602ZM88.3619 276.506V296.143H84.2774V276.506H88.3619ZM98.3455 296.43C96.8306 296.43 95.5266 296.123 94.4336 295.51C93.3469 294.89 92.5096 294.014 91.9215 292.883C91.3335 291.745 91.0394 290.399 91.0394 288.846C91.0394 287.331 91.3335 286.002 91.9215 284.857C92.5096 283.713 93.3374 282.822 94.4048 282.182C95.4787 281.543 96.7379 281.224 98.1825 281.224C99.1541 281.224 100.059 281.38 100.896 281.693C101.74 282 102.475 282.464 103.101 283.084C103.734 283.704 104.226 284.483 104.578 285.423C104.929 286.356 105.105 287.449 105.105 288.702V289.824H92.6694V287.293H101.26C101.26 286.705 101.132 286.184 100.877 285.73C100.621 285.276 100.266 284.921 99.8125 284.666C99.3651 284.404 98.8441 284.273 98.2496 284.273C97.6296 284.273 97.0799 284.416 96.6005 284.704C96.1275 284.985 95.7567 285.366 95.4883 285.845C95.2198 286.318 95.0824 286.845 95.076 287.427V289.834C95.076 290.562 95.2102 291.192 95.4787 291.722C95.7536 292.253 96.1403 292.662 96.6388 292.95C97.1374 293.237 97.7287 293.381 98.4126 293.381C98.8665 293.381 99.282 293.317 99.6591 293.189C100.036 293.062 100.359 292.87 100.627 292.614C100.896 292.358 101.1 292.045 101.241 291.675L105.019 291.924C104.827 292.831 104.434 293.624 103.839 294.302C103.251 294.973 102.491 295.497 101.558 295.874C100.631 296.245 99.56 296.43 98.3455 296.43ZM113.197 296.382C112.079 296.382 111.066 296.095 110.158 295.519C109.257 294.938 108.541 294.084 108.01 292.959C107.486 291.828 107.224 290.441 107.224 288.798C107.224 287.111 107.496 285.708 108.039 284.589C108.582 283.464 109.305 282.623 110.206 282.067C111.114 281.505 112.108 281.224 113.188 281.224C114.012 281.224 114.7 281.364 115.249 281.645C115.805 281.92 116.253 282.265 116.592 282.681C116.937 283.09 117.199 283.493 117.378 283.889H117.502V276.506H121.577V296.143H117.55V293.784H117.378C117.186 294.193 116.914 294.599 116.563 295.002C116.218 295.398 115.767 295.727 115.211 295.989C114.661 296.251 113.99 296.382 113.197 296.382ZM114.492 293.132C115.15 293.132 115.706 292.953 116.16 292.595C116.62 292.231 116.972 291.722 117.215 291.07C117.464 290.419 117.589 289.655 117.589 288.779C117.589 287.903 117.467 287.143 117.224 286.497C116.982 285.851 116.63 285.353 116.17 285.001C115.71 284.65 115.15 284.474 114.492 284.474C113.821 284.474 113.255 284.656 112.795 285.02C112.335 285.385 111.986 285.89 111.75 286.535C111.513 287.181 111.395 287.929 111.395 288.779C111.395 289.635 111.513 290.393 111.75 291.051C111.993 291.703 112.341 292.215 112.795 292.585C113.255 292.95 113.821 293.132 114.492 293.132ZM129.02 287.628V296.143H124.936V281.415H128.828V284.014H129.001C129.327 283.157 129.873 282.48 130.641 281.981C131.408 281.476 132.338 281.224 133.431 281.224C134.453 281.224 135.345 281.447 136.106 281.895C136.866 282.342 137.458 282.981 137.88 283.812C138.301 284.637 138.512 285.621 138.512 286.765V296.143H134.428V287.494C134.434 286.593 134.204 285.89 133.737 285.385C133.271 284.873 132.628 284.618 131.81 284.618C131.261 284.618 130.775 284.736 130.353 284.972C129.937 285.209 129.611 285.554 129.375 286.008C129.145 286.455 129.027 286.996 129.02 287.628ZM145.931 296.421C144.991 296.421 144.154 296.258 143.419 295.932C142.684 295.599 142.102 295.11 141.674 294.465C141.252 293.813 141.041 293.001 141.041 292.029C141.041 291.211 141.191 290.524 141.492 289.968C141.792 289.412 142.201 288.964 142.719 288.626C143.237 288.287 143.825 288.031 144.483 287.858C145.148 287.686 145.845 287.564 146.574 287.494C147.43 287.405 148.12 287.322 148.645 287.245C149.169 287.162 149.549 287.04 149.786 286.881C150.022 286.721 150.14 286.484 150.14 286.171V286.113C150.14 285.506 149.949 285.036 149.565 284.704C149.188 284.372 148.651 284.205 147.954 284.205C147.219 284.205 146.634 284.368 146.2 284.694C145.765 285.014 145.477 285.417 145.337 285.903L141.559 285.596C141.751 284.701 142.128 283.927 142.69 283.275C143.253 282.617 143.978 282.112 144.867 281.76C145.762 281.403 146.797 281.224 147.973 281.224C148.792 281.224 149.575 281.319 150.322 281.511C151.077 281.703 151.745 282 152.326 282.403C152.914 282.806 153.378 283.323 153.717 283.956C154.055 284.583 154.225 285.334 154.225 286.209V296.143H150.351V294.1H150.236C150 294.561 149.683 294.966 149.287 295.318C148.891 295.663 148.414 295.935 147.858 296.133C147.302 296.325 146.66 296.421 145.931 296.421ZM147.101 293.602C147.702 293.602 148.232 293.483 148.692 293.247C149.153 293.004 149.514 292.678 149.776 292.269C150.038 291.86 150.169 291.396 150.169 290.879V289.316C150.041 289.399 149.865 289.476 149.642 289.546C149.424 289.61 149.178 289.671 148.903 289.728C148.629 289.779 148.354 289.827 148.079 289.872C147.804 289.91 147.555 289.945 147.331 289.977C146.852 290.048 146.433 290.16 146.075 290.313C145.717 290.466 145.439 290.674 145.241 290.936C145.043 291.192 144.944 291.512 144.944 291.895C144.944 292.451 145.145 292.876 145.548 293.17C145.957 293.458 146.474 293.602 147.101 293.602ZM157.394 296.143V281.415H161.286V284.014H161.459C161.766 283.151 162.277 282.47 162.993 281.971C163.709 281.473 164.566 281.224 165.563 281.224C166.573 281.224 167.432 281.476 168.142 281.981C168.851 282.48 169.324 283.157 169.561 284.014H169.714C170.015 283.17 170.558 282.496 171.344 281.991C172.137 281.479 173.073 281.224 174.154 281.224C175.528 281.224 176.643 281.661 177.5 282.537C178.363 283.406 178.794 284.64 178.794 286.238V296.143H174.719V287.044C174.719 286.225 174.502 285.612 174.067 285.203C173.633 284.794 173.089 284.589 172.437 284.589C171.696 284.589 171.117 284.825 170.702 285.298C170.286 285.765 170.079 286.382 170.079 287.149V296.143H166.119V286.957C166.119 286.235 165.911 285.66 165.496 285.231C165.086 284.803 164.546 284.589 163.875 284.589C163.421 284.589 163.012 284.704 162.648 284.934C162.29 285.158 162.006 285.474 161.795 285.883C161.584 286.286 161.478 286.759 161.478 287.302V296.143H157.394ZM188.732 296.43C187.217 296.43 185.913 296.123 184.82 295.51C183.734 294.89 182.896 294.014 182.308 292.883C181.72 291.745 181.426 290.399 181.426 288.846C181.426 287.331 181.72 286.002 182.308 284.857C182.896 283.713 183.724 282.822 184.792 282.182C185.865 281.543 187.125 281.224 188.569 281.224C189.541 281.224 190.445 281.38 191.283 281.693C192.126 282 192.862 282.464 193.488 283.084C194.121 283.704 194.613 284.483 194.964 285.423C195.316 286.356 195.492 287.449 195.492 288.702V289.824H183.056V287.293H191.647C191.647 286.705 191.519 286.184 191.263 285.73C191.008 285.276 190.653 284.921 190.199 284.666C189.752 284.404 189.231 284.273 188.636 284.273C188.016 284.273 187.467 284.416 186.987 284.704C186.514 284.985 186.143 285.366 185.875 285.845C185.607 286.318 185.469 286.845 185.463 287.427V289.834C185.463 290.562 185.597 291.192 185.865 291.722C186.14 292.253 186.527 292.662 187.026 292.95C187.524 293.237 188.115 293.381 188.799 293.381C189.253 293.381 189.669 293.317 190.046 293.189C190.423 293.062 190.746 292.87 191.014 292.614C191.283 292.358 191.487 292.045 191.628 291.675L195.406 291.924C195.214 292.831 194.821 293.624 194.226 294.302C193.638 294.973 192.877 295.497 191.944 295.874C191.017 296.245 189.947 296.43 188.732 296.43ZM200.545 296.392C199.912 296.392 199.369 296.168 198.915 295.721C198.467 295.267 198.244 294.724 198.244 294.091C198.244 293.464 198.467 292.927 198.915 292.48C199.369 292.032 199.912 291.809 200.545 291.809C201.158 291.809 201.695 292.032 202.156 292.48C202.616 292.927 202.846 293.464 202.846 294.091C202.846 294.513 202.737 294.899 202.52 295.251C202.309 295.596 202.031 295.874 201.686 296.085C201.341 296.29 200.96 296.392 200.545 296.392ZM210.399 296.421C209.459 296.421 208.622 296.258 207.887 295.932C207.152 295.599 206.57 295.11 206.142 294.465C205.72 293.813 205.509 293.001 205.509 292.029C205.509 291.211 205.659 290.524 205.96 289.968C206.26 289.412 206.669 288.964 207.187 288.626C207.705 288.287 208.293 288.031 208.951 287.858C209.616 287.686 210.313 287.564 211.041 287.494C211.898 287.405 212.588 287.322 213.112 287.245C213.636 287.162 214.017 287.04 214.253 286.881C214.49 286.721 214.608 286.484 214.608 286.171V286.113C214.608 285.506 214.416 285.036 214.033 284.704C213.656 284.372 213.119 284.205 212.422 284.205C211.687 284.205 211.102 284.368 210.667 284.694C210.233 285.014 209.945 285.417 209.804 285.903L206.027 285.596C206.218 284.701 206.596 283.927 207.158 283.275C207.721 282.617 208.446 282.112 209.335 281.76C210.229 281.403 211.265 281.224 212.441 281.224C213.259 281.224 214.042 281.319 214.79 281.511C215.544 281.703 216.212 282 216.794 282.403C217.382 282.806 217.846 283.323 218.184 283.956C218.523 284.583 218.693 285.334 218.693 286.209V296.143H214.819V294.1H214.704C214.467 294.561 214.151 294.966 213.755 295.318C213.358 295.663 212.882 295.935 212.326 296.133C211.77 296.325 211.128 296.421 210.399 296.421ZM211.569 293.602C212.169 293.602 212.7 293.483 213.16 293.247C213.62 293.004 213.982 292.678 214.244 292.269C214.506 291.86 214.637 291.396 214.637 290.879V289.316C214.509 289.399 214.333 289.476 214.109 289.546C213.892 289.61 213.646 289.671 213.371 289.728C213.096 289.779 212.821 289.827 212.547 289.872C212.272 289.91 212.022 289.945 211.799 289.977C211.319 290.048 210.901 290.16 210.543 290.313C210.185 290.466 209.907 290.674 209.709 290.936C209.51 291.192 209.411 291.512 209.411 291.895C209.411 292.451 209.613 292.876 210.015 293.17C210.424 293.458 210.942 293.602 211.569 293.602ZM225.946 287.628V296.143H221.861V281.415H225.754V284.014H225.927C226.253 283.157 226.799 282.48 227.566 281.981C228.333 281.476 229.263 281.224 230.356 281.224C231.379 281.224 232.271 281.447 233.032 281.895C233.792 282.342 234.383 282.981 234.805 283.812C235.227 284.637 235.438 285.621 235.438 286.765V296.143H231.354V287.494C231.36 286.593 231.13 285.89 230.663 285.385C230.197 284.873 229.554 284.618 228.736 284.618C228.186 284.618 227.701 284.736 227.279 284.972C226.863 285.209 226.537 285.554 226.301 286.008C226.071 286.455 225.952 286.996 225.946 287.628ZM240.652 301.665C240.134 301.665 239.648 301.624 239.194 301.541C238.747 301.464 238.376 301.365 238.082 301.243L239.002 298.194C239.482 298.341 239.913 298.421 240.297 298.434C240.687 298.447 241.022 298.357 241.304 298.166C241.591 297.974 241.825 297.648 242.004 297.188L242.243 296.564L236.96 281.415H241.256L244.305 292.231H244.458L247.536 281.415H251.86L246.136 297.734C245.861 298.527 245.487 299.217 245.014 299.805C244.548 300.4 243.956 300.857 243.24 301.176C242.525 301.502 241.662 301.665 240.652 301.665ZM255.415 296.392C254.782 296.392 254.239 296.168 253.785 295.721C253.337 295.267 253.114 294.724 253.114 294.091C253.114 293.464 253.337 292.927 253.785 292.48C254.239 292.032 254.782 291.809 255.415 291.809C256.028 291.809 256.565 292.032 257.026 292.48C257.486 292.927 257.716 293.464 257.716 294.091C257.716 294.513 257.607 294.899 257.39 295.251C257.179 295.596 256.901 295.874 256.556 296.085C256.211 296.29 255.83 296.392 255.415 296.392ZM267.781 296.43C266.266 296.43 264.962 296.123 263.869 295.51C262.782 294.89 261.945 294.014 261.357 292.883C260.769 291.745 260.475 290.399 260.475 288.846C260.475 287.331 260.769 286.002 261.357 284.857C261.945 283.713 262.773 282.822 263.84 282.182C264.914 281.543 266.173 281.224 267.618 281.224C268.59 281.224 269.494 281.38 270.331 281.693C271.175 282 271.91 282.464 272.537 283.084C273.17 283.704 273.662 284.483 274.013 285.423C274.365 286.356 274.541 287.449 274.541 288.702V289.824H262.105V287.293H270.696C270.696 286.705 270.568 286.184 270.312 285.73C270.057 285.276 269.702 284.921 269.248 284.666C268.801 284.404 268.28 284.273 267.685 284.273C267.065 284.273 266.515 284.416 266.036 284.704C265.563 284.985 265.192 285.366 264.924 285.845C264.655 286.318 264.518 286.845 264.512 287.427V289.834C264.512 290.562 264.646 291.192 264.914 291.722C265.189 292.253 265.576 292.662 266.074 292.95C266.573 293.237 267.164 293.381 267.848 293.381C268.302 293.381 268.718 293.317 269.095 293.189C269.472 293.062 269.795 292.87 270.063 292.614C270.331 292.358 270.536 292.045 270.677 291.675L274.454 291.924C274.263 292.831 273.869 293.624 273.275 294.302C272.687 294.973 271.926 295.497 270.993 295.874C270.066 296.245 268.996 296.43 267.781 296.43ZM285.04 281.415V284.483H276.171V281.415H285.04ZM278.184 277.887H282.269V291.617C282.269 291.994 282.326 292.288 282.441 292.499C282.556 292.704 282.716 292.847 282.921 292.931C283.132 293.014 283.374 293.055 283.649 293.055C283.841 293.055 284.033 293.039 284.225 293.007C284.416 292.969 284.563 292.94 284.666 292.921L285.308 295.96C285.104 296.024 284.816 296.098 284.445 296.181C284.074 296.27 283.624 296.325 283.093 296.344C282.109 296.382 281.246 296.251 280.504 295.951C279.769 295.65 279.197 295.184 278.788 294.551C278.379 293.918 278.178 293.119 278.184 292.154V277.887ZM292.101 287.628V296.143H288.017V276.506H291.986V284.014H292.159C292.491 283.144 293.028 282.464 293.77 281.971C294.511 281.473 295.441 281.224 296.56 281.224C297.582 281.224 298.474 281.447 299.235 281.895C300.002 282.336 300.596 282.972 301.018 283.803C301.446 284.627 301.657 285.615 301.651 286.765V296.143H297.566V287.494C297.573 286.586 297.343 285.88 296.876 285.375C296.416 284.87 295.77 284.618 294.939 284.618C294.383 284.618 293.891 284.736 293.463 284.972C293.041 285.209 292.708 285.554 292.466 286.008C292.229 286.455 292.108 286.996 292.101 287.628Z" fill="white"/>
<path d="M45.0072 52.4277C45.6047 51.3447 46.4465 50.397 47.4785 49.72L64.8316 37.6436L47.044 66.9682C47.044 66.9682 45.4961 64.3417 44.8715 63.015C43.3507 59.6303 43.405 55.7582 45.0072 52.4277ZM37.8379 72.6545C38.2452 78.3407 41.0695 83.5666 45.6047 87.0054L64.8045 100.355C64.8045 100.355 52.8012 83.0792 42.6446 65.9122C41.6127 64.098 40.9337 62.1214 40.6079 60.0635C40.4721 59.1429 40.4721 58.1952 40.6079 57.2475C40.3363 57.7349 39.8203 58.7368 39.8203 58.7368C38.7884 60.8217 38.0823 63.0691 37.7564 65.3707C37.5935 67.7806 37.5935 70.2446 37.8379 72.6545ZM86.8014 74.9831C86.1768 73.6563 84.6288 71.0298 84.6288 71.0298L66.8684 100.355L84.2215 88.2781C85.2534 87.6011 86.0953 86.6534 86.6927 85.5703C88.295 82.2398 88.3493 78.3678 86.8014 74.9831V74.9831ZM93.8621 65.3436C93.4547 59.6574 90.6304 54.4315 86.0953 50.9926L66.9227 37.6436C66.9227 37.6436 78.9259 54.9189 89.0825 72.0858C90.1145 73.9 90.7934 75.8767 91.1193 77.9345C91.2551 78.8552 91.2551 79.8029 91.1193 80.7506C91.3908 80.2632 91.9068 79.2613 91.9068 79.2613C92.9388 77.1764 93.6448 74.929 93.9707 72.6274C94.1608 70.1904 94.1608 67.7535 93.9164 65.3165L93.8621 65.3436Z" fill="white"/>
</g>
<defs>
<filter id="filter0_i_272_807" x="0" y="-2.42857" width="340" height="342.429" filterUnits="userSpaceOnUse" color-interpolation-filters="sRGB">
<feFlood flood-opacity="0" result="BackgroundImageFix"/>
<feBlend mode="normal" in="SourceGraphic" in2="BackgroundImageFix" result="shape"/>
<feColorMatrix in="SourceAlpha" type="matrix" values="0 0 0 0 0 0 0 0 0 0 0 0 0 0 0 0 0 0 127 0" result="hardAlpha"/>
<feOffset dy="-2.42857"/>
<feGaussianBlur stdDeviation="9.71428"/>
<feComposite in2="hardAlpha" operator="arithmetic" k2="-1" k3="1"/>
<feColorMatrix type="matrix" values="0 0 0 0 1 0 0 0 0 1 0 0 0 0 1 0 0 0 0.2 0"/>
<feBlend mode="normal" in2="shape" result="effect1_innerShadow_272_807"/>
</filter>
<linearGradient id="paint0_linear_272_807" x1="239.889" y1="380.296" x2="-80.5926" y2="-217.222" gradientUnits="userSpaceOnUse">
<stop stop-color="#44BCF0"/>
<stop offset="0.428185" stop-color="#628BF3"/>
<stop offset="1" stop-color="#A099FF"/>
</linearGradient>
</defs>
</svg>
