<svg width="22" height="22" viewBox="0 0 22 22" fill="none" xmlns="http://www.w3.org/2000/svg">
<g clip-path="url(#clip0_2370_1125)">
<mask id="mask0_2370_1125" style="mask-type:luminance" maskUnits="userSpaceOnUse" x="0" y="0" width="22" height="22">
<path d="M21.4277 10.7677C21.4277 16.4389 16.8314 21.0324 11.163 21.0324C5.4947 21.0324 0.898357 16.436 0.898357 10.7677C0.898357 5.09935 5.49182 0.500122 11.1602 0.500122C16.8285 0.500122 21.4277 5.09647 21.4277 10.7677Z" fill="white"/>
</mask>
<g mask="url(#mask0_2370_1125)">
<path d="M0.895475 0.500122H21.4277V21.0324H0.895475V0.500122Z" fill="url(#paint0_linear_2370_1125)"/>
</g>
<mask id="mask1_2370_1125" style="mask-type:luminance" maskUnits="userSpaceOnUse" x="0" y="0" width="22" height="22">
<path d="M0.302135 0.0357666H21.915V21.6487H0.302135V0.0357666Z" fill="white"/>
</mask>
<g mask="url(#mask1_2370_1125)">
<path d="M16.4051 6.57441C16.2581 6.29776 16.0449 6.06146 15.7826 5.88856L11.4168 2.83105L15.8893 10.2515C15.8893 10.2515 16.2812 9.58869 16.4339 9.25441C16.6241 8.83368 16.7192 8.37548 16.7134 7.91153C16.7106 7.44757 16.6039 6.99226 16.4051 6.57441ZM18.2062 11.6952C18.1572 12.4041 17.9583 13.0957 17.6212 13.7211C17.284 14.3464 16.8172 14.8939 16.2524 15.3233L11.4226 18.7007C11.4226 18.7007 14.4426 14.332 16.9901 9.98637C17.2466 9.52817 17.4223 9.02387 17.503 8.50516C17.5376 8.26886 17.5376 8.02968 17.503 7.79338C17.5693 7.91729 17.699 8.17088 17.699 8.17088C17.9583 8.70112 18.1341 9.26594 18.2206 9.84804C18.2725 10.4619 18.2667 11.0814 18.2062 11.6952ZM5.89546 12.2831C6.05107 11.9488 6.43723 11.286 6.43723 11.286L10.9039 18.7036L6.53809 15.6461C6.27873 15.4732 6.06548 15.2369 5.91563 14.9602C5.71679 14.5424 5.61017 14.0871 5.60441 13.6231C5.59864 13.162 5.69662 12.7009 5.88393 12.2802L5.89546 12.2831ZM4.1232 9.8394C4.17219 9.1305 4.37391 8.43888 4.70819 7.81355C5.04247 7.18822 5.51219 6.64069 6.07701 6.21131L10.8981 2.83105C10.8981 2.83105 7.87809 7.19974 5.33064 11.5454C5.07417 12.0036 4.90127 12.5079 4.82058 13.0266C4.786 13.2629 4.786 13.5021 4.82058 13.7384C4.7543 13.6145 4.62462 13.3609 4.62462 13.3609C4.36527 12.8306 4.18948 12.2658 4.10303 11.6837C4.05116 11.067 4.05692 10.4503 4.11744 9.83363L4.1232 9.8394Z" fill="white"/>
</g>
</g>
<defs>
<linearGradient id="paint0_linear_2370_1125" x1="21.4273" y1="10.7658" x2="0.895007" y2="10.7658" gradientUnits="userSpaceOnUse">
<stop stop-color="#513EFF"/>
<stop offset="0.18" stop-color="#5157FF"/>
<stop offset="0.57" stop-color="#5298FF"/>
<stop offset="1" stop-color="#52E5FF"/>
</linearGradient>
<clipPath id="clip0_2370_1125">
<rect width="21.6129" height="21.6129" fill="white" transform="matrix(-1 0 0 1 21.915 0.0357666)"/>
</clipPath>
</defs>
</svg>
