<svg width="340" height="340" viewBox="0 0 340 340" fill="none" xmlns="http://www.w3.org/2000/svg">
<g filter="url(#filter0_i_272_811)">
<rect width="340" height="340" rx="24" fill="white"/>
<rect x="0.5" y="0.5" width="339" height="339" rx="23.5" stroke="#EAEAEA"/>
<path d="M35.8572 298.463V274.195H43.4222V277.244H39.8075V295.404H43.4222V298.463H35.8572ZM53.1757 296.411C52.1657 296.405 51.191 296.235 50.2513 295.903C49.3181 295.57 48.4807 295.03 47.7393 294.282C46.9978 293.535 46.4097 292.544 45.9751 291.31C45.5468 290.077 45.3327 288.562 45.3327 286.765C45.339 285.116 45.5276 283.643 45.8983 282.345C46.2755 281.041 46.8124 279.936 47.5091 279.028C48.2123 278.12 49.0528 277.43 50.0308 276.957C51.0088 276.477 52.105 276.238 53.3195 276.238C54.6299 276.238 55.7868 276.493 56.7904 277.005C57.7939 277.51 58.5993 278.197 59.2066 279.066C59.8202 279.936 60.191 280.91 60.3188 281.991H56.2247C56.0649 281.307 55.7293 280.77 55.218 280.38C54.7066 279.99 54.0738 279.795 53.3195 279.795C52.0411 279.795 51.0695 280.351 50.4047 281.463C49.7464 282.575 49.4108 284.087 49.398 285.998H49.5322C49.8263 285.417 50.2226 284.921 50.7211 284.512C51.2261 284.097 51.7982 283.78 52.4374 283.563C53.083 283.339 53.7638 283.227 54.4797 283.227C55.643 283.227 56.6785 283.502 57.5862 284.052C58.4939 284.595 59.2098 285.343 59.7339 286.296C60.2581 287.248 60.5202 288.338 60.5202 289.565C60.5202 290.895 60.2101 292.077 59.5901 293.113C58.9765 294.148 58.1167 294.96 57.0109 295.548C55.9115 296.13 54.6331 296.417 53.1757 296.411ZM53.1565 293.151C53.7957 293.151 54.3678 292.998 54.8728 292.691C55.3778 292.384 55.7741 291.969 56.0617 291.444C56.3493 290.92 56.4932 290.332 56.4932 289.68C56.4932 289.028 56.3493 288.443 56.0617 287.926C55.7805 287.408 55.3905 286.996 54.892 286.689C54.3934 286.382 53.8245 286.229 53.1853 286.229C52.7059 286.229 52.2616 286.318 51.8525 286.497C51.4498 286.676 51.0951 286.925 50.7883 287.245C50.4878 287.564 50.2513 287.935 50.0787 288.357C49.9062 288.773 49.8199 289.217 49.8199 289.69C49.8199 290.323 49.9637 290.901 50.2513 291.425C50.5454 291.949 50.9417 292.368 51.4403 292.681C51.9452 292.994 52.5173 293.151 53.1565 293.151ZM71.4218 281.415V284.483H62.3323V281.415H71.4218ZM64.4129 296.143V280.351C64.4129 279.284 64.6206 278.398 65.0361 277.695C65.458 276.992 66.0333 276.465 66.762 276.113C67.4907 275.762 68.3184 275.586 69.2453 275.586C69.8717 275.586 70.4438 275.634 70.9616 275.73C71.4857 275.825 71.8756 275.912 72.1313 275.988L71.4026 279.057C71.2428 279.006 71.0447 278.958 70.8081 278.913C70.578 278.868 70.3415 278.846 70.0986 278.846C69.4978 278.846 69.0791 278.986 68.8426 279.268C68.6061 279.542 68.4878 279.929 68.4878 280.428V296.143H64.4129ZM78.8166 296.382C77.698 296.382 76.6848 296.095 75.7772 295.519C74.8759 294.938 74.16 294.084 73.6294 292.959C73.1053 291.828 72.8432 290.441 72.8432 288.798C72.8432 287.111 73.1149 285.708 73.6582 284.589C74.2015 283.464 74.9238 282.623 75.8251 282.067C76.7328 281.505 77.7267 281.224 78.807 281.224C79.6316 281.224 80.3187 281.364 80.8684 281.645C81.4245 281.92 81.872 282.265 82.2108 282.681C82.5559 283.09 82.818 283.493 82.997 283.889H83.1216V276.506H87.1966V296.143H83.1696V293.784H82.997C82.8052 294.193 82.5336 294.599 82.182 295.002C81.8368 295.398 81.3862 295.727 80.8301 295.989C80.2804 296.251 79.6092 296.382 78.8166 296.382ZM80.111 293.132C80.7694 293.132 81.3255 292.953 81.7793 292.595C82.2395 292.231 82.5911 291.722 82.834 291.07C83.0833 290.419 83.2079 289.655 83.2079 288.779C83.2079 287.903 83.0865 287.143 82.8436 286.497C82.6007 285.851 82.2491 285.353 81.7889 285.001C81.3287 284.65 80.7694 284.474 80.111 284.474C79.4398 284.474 78.8741 284.656 78.4139 285.02C77.9537 285.385 77.6053 285.89 77.3688 286.535C77.1323 287.181 77.014 287.929 77.014 288.779C77.014 289.635 77.1323 290.393 77.3688 291.051C77.6117 291.703 77.96 292.215 78.4139 292.585C78.8741 292.95 79.4398 293.132 80.111 293.132ZM90.2192 292.691V289.421L98.417 276.506H101.236V281.032H99.5676L94.3996 289.21V289.364H106.049V292.691H90.2192ZM99.6443 296.143V291.694L99.721 290.246V276.506H103.614V296.143H99.6443ZM114.28 296.382C113.162 296.382 112.149 296.095 111.241 295.519C110.34 294.938 109.624 294.084 109.093 292.959C108.569 291.828 108.307 290.441 108.307 288.798C108.307 287.111 108.579 285.708 109.122 284.589C109.665 283.464 110.388 282.623 111.289 282.067C112.197 281.505 113.191 281.224 114.271 281.224C115.095 281.224 115.783 281.364 116.332 281.645C116.888 281.92 117.336 282.265 117.675 282.681C118.02 283.09 118.282 283.493 118.461 283.889H118.585V276.506H122.66V296.143H118.633V293.784H118.461C118.269 294.193 117.997 294.599 117.646 295.002C117.301 295.398 116.85 295.727 116.294 295.989C115.744 296.251 115.073 296.382 114.28 296.382ZM115.575 293.132C116.233 293.132 116.789 292.953 117.243 292.595C117.703 292.231 118.055 291.722 118.298 291.07C118.547 290.419 118.672 289.655 118.672 288.779C118.672 287.903 118.55 287.143 118.307 286.497C118.065 285.851 117.713 285.353 117.253 285.001C116.793 284.65 116.233 284.474 115.575 284.474C114.904 284.474 114.338 284.656 113.878 285.02C113.418 285.385 113.069 285.89 112.833 286.535C112.596 287.181 112.478 287.929 112.478 288.779C112.478 289.635 112.596 290.393 112.833 291.051C113.076 291.703 113.424 292.215 113.878 292.585C114.338 292.95 114.904 293.132 115.575 293.132ZM133.306 296.411C131.829 296.411 130.515 296.171 129.365 295.692C128.221 295.206 127.323 294.545 126.671 293.707C126.019 292.87 125.693 291.921 125.693 290.86C125.693 290.041 125.878 289.29 126.249 288.606C126.626 287.916 127.137 287.344 127.783 286.89C128.428 286.43 129.151 286.136 129.95 286.008V285.874C128.901 285.663 128.051 285.155 127.399 284.349C126.747 283.537 126.421 282.595 126.421 281.521C126.421 280.504 126.719 279.6 127.313 278.807C127.907 278.008 128.722 277.382 129.758 276.928C130.8 276.468 131.982 276.238 133.306 276.238C134.629 276.238 135.808 276.468 136.844 276.928C137.885 277.388 138.704 278.018 139.298 278.817C139.893 279.61 140.193 280.511 140.199 281.521C140.193 282.601 139.861 283.544 139.202 284.349C138.544 285.155 137.7 285.663 136.671 285.874V286.008C137.457 286.136 138.17 286.43 138.809 286.89C139.455 287.344 139.966 287.916 140.343 288.606C140.727 289.29 140.922 290.041 140.928 290.86C140.922 291.921 140.593 292.87 139.941 293.707C139.289 294.545 138.387 295.206 137.237 295.692C136.093 296.171 134.782 296.411 133.306 296.411ZM133.306 293.362C133.964 293.362 134.539 293.244 135.031 293.007C135.524 292.764 135.907 292.432 136.182 292.01C136.463 291.582 136.604 291.09 136.604 290.534C136.604 289.965 136.46 289.463 136.172 289.028C135.885 288.587 135.495 288.242 135.003 287.993C134.51 287.737 133.945 287.609 133.306 287.609C132.673 287.609 132.107 287.737 131.608 287.993C131.11 288.242 130.717 288.587 130.429 289.028C130.148 289.463 130.007 289.965 130.007 290.534C130.007 291.09 130.145 291.582 130.42 292.01C130.694 292.432 131.081 292.764 131.58 293.007C132.078 293.244 132.654 293.362 133.306 293.362ZM133.306 284.589C133.855 284.589 134.344 284.477 134.773 284.253C135.201 284.03 135.536 283.72 135.779 283.323C136.022 282.927 136.144 282.47 136.144 281.952C136.144 281.441 136.022 280.993 135.779 280.61C135.536 280.22 135.204 279.916 134.782 279.699C134.36 279.475 133.868 279.363 133.306 279.363C132.749 279.363 132.257 279.475 131.829 279.699C131.401 279.916 131.065 280.22 130.822 280.61C130.586 280.993 130.468 281.441 130.468 281.952C130.468 282.47 130.589 282.927 130.832 283.323C131.075 283.72 131.41 284.03 131.839 284.253C132.267 284.477 132.756 284.589 133.306 284.589ZM152.374 276.506V296.143H148.222V280.447H148.107L143.61 283.266V279.584L148.472 276.506H152.374ZM158.412 296.392C157.779 296.392 157.236 296.168 156.782 295.721C156.335 295.267 156.111 294.724 156.111 294.091C156.111 293.464 156.335 292.927 156.782 292.48C157.236 292.032 157.779 291.809 158.412 291.809C159.026 291.809 159.563 292.032 160.023 292.48C160.483 292.927 160.713 293.464 160.713 294.091C160.713 294.513 160.604 294.899 160.387 295.251C160.176 295.596 159.898 295.874 159.553 296.085C159.208 296.29 158.827 296.392 158.412 296.392ZM166.454 296.392C165.821 296.392 165.278 296.168 164.824 295.721C164.377 295.267 164.153 294.724 164.153 294.091C164.153 293.464 164.377 292.927 164.824 292.48C165.278 292.032 165.821 291.809 166.454 291.809C167.068 291.809 167.604 292.032 168.065 292.48C168.525 292.927 168.755 293.464 168.755 294.091C168.755 294.513 168.646 294.899 168.429 295.251C168.218 295.596 167.94 295.874 167.595 296.085C167.25 296.29 166.869 296.392 166.454 296.392ZM174.496 296.392C173.863 296.392 173.32 296.168 172.866 295.721C172.419 295.267 172.195 294.724 172.195 294.091C172.195 293.464 172.419 292.927 172.866 292.48C173.32 292.032 173.863 291.809 174.496 291.809C175.11 291.809 175.646 292.032 176.107 292.48C176.567 292.927 176.797 293.464 176.797 294.091C176.797 294.513 176.688 294.899 176.471 295.251C176.26 295.596 175.982 295.874 175.637 296.085C175.292 296.29 174.911 296.392 174.496 296.392ZM186.646 296.411C185.17 296.411 183.856 296.171 182.706 295.692C181.562 295.206 180.663 294.545 180.011 293.707C179.359 292.87 179.033 291.921 179.033 290.86C179.033 290.041 179.219 289.29 179.59 288.606C179.967 287.916 180.478 287.344 181.124 286.89C181.769 286.43 182.492 286.136 183.291 286.008V285.874C182.242 285.663 181.392 285.155 180.74 284.349C180.088 283.537 179.762 282.595 179.762 281.521C179.762 280.504 180.059 279.6 180.654 278.807C181.248 278.008 182.063 277.382 183.099 276.928C184.141 276.468 185.323 276.238 186.646 276.238C187.97 276.238 189.149 276.468 190.184 276.928C191.226 277.388 192.044 278.018 192.639 278.817C193.233 279.61 193.534 280.511 193.54 281.521C193.534 282.601 193.201 283.544 192.543 284.349C191.885 285.155 191.041 285.663 190.012 285.874V286.008C190.798 286.136 191.511 286.43 192.15 286.89C192.796 287.344 193.307 287.916 193.684 288.606C194.068 289.29 194.263 290.041 194.269 290.86C194.263 291.921 193.933 292.87 193.281 293.707C192.629 294.545 191.728 295.206 190.578 295.692C189.433 296.171 188.123 296.411 186.646 296.411ZM186.646 293.362C187.305 293.362 187.88 293.244 188.372 293.007C188.864 292.764 189.248 292.432 189.523 292.01C189.804 291.582 189.945 291.09 189.945 290.534C189.945 289.965 189.801 289.463 189.513 289.028C189.226 288.587 188.836 288.242 188.343 287.993C187.851 287.737 187.286 287.609 186.646 287.609C186.014 287.609 185.448 287.737 184.949 287.993C184.451 288.242 184.058 288.587 183.77 289.028C183.489 289.463 183.348 289.965 183.348 290.534C183.348 291.09 183.486 291.582 183.76 292.01C184.035 292.432 184.422 292.764 184.921 293.007C185.419 293.244 185.994 293.362 186.646 293.362ZM186.646 284.589C187.196 284.589 187.685 284.477 188.113 284.253C188.542 284.03 188.877 283.72 189.12 283.323C189.363 282.927 189.484 282.47 189.484 281.952C189.484 281.441 189.363 280.993 189.12 280.61C188.877 280.22 188.545 279.916 188.123 279.699C187.701 279.475 187.209 279.363 186.646 279.363C186.09 279.363 185.598 279.475 185.17 279.699C184.742 279.916 184.406 280.22 184.163 280.61C183.927 280.993 183.808 281.441 183.808 281.952C183.808 282.47 183.93 282.927 184.173 283.323C184.416 283.72 184.751 284.03 185.179 284.253C185.608 284.477 186.097 284.589 186.646 284.589ZM204.344 296.411C202.988 296.411 201.78 296.162 200.719 295.663C199.665 295.165 198.827 294.477 198.207 293.602C197.587 292.726 197.264 291.722 197.239 290.591H201.266C201.311 291.352 201.63 291.969 202.225 292.442C202.819 292.915 203.525 293.151 204.344 293.151C204.996 293.151 205.571 293.007 206.069 292.72C206.574 292.426 206.968 292.02 207.249 291.502C207.536 290.978 207.68 290.377 207.68 289.699C207.68 289.009 207.533 288.402 207.239 287.878C206.952 287.354 206.552 286.944 206.041 286.65C205.529 286.356 204.944 286.206 204.286 286.2C203.711 286.2 203.151 286.318 202.608 286.555C202.071 286.791 201.653 287.114 201.352 287.523L197.661 286.861L198.591 276.506H210.595V279.9H202.014L201.506 284.819H201.621C201.966 284.333 202.487 283.931 203.183 283.611C203.88 283.291 204.66 283.132 205.523 283.132C206.705 283.132 207.76 283.41 208.687 283.966C209.614 284.522 210.346 285.286 210.883 286.257C211.42 287.222 211.685 288.335 211.678 289.594C211.685 290.917 211.378 292.093 210.758 293.122C210.144 294.145 209.285 294.95 208.179 295.539C207.079 296.12 205.801 296.411 204.344 296.411ZM221.247 301.972C219.924 301.972 218.79 301.79 217.844 301.426C216.904 301.068 216.156 300.579 215.6 299.959C215.044 299.339 214.683 298.642 214.517 297.868L218.294 297.36C218.409 297.654 218.591 297.929 218.841 298.185C219.09 298.441 219.419 298.645 219.828 298.798C220.244 298.958 220.749 299.038 221.343 299.038C222.232 299.038 222.964 298.821 223.539 298.386C224.121 297.958 224.411 297.239 224.411 296.229V293.535H224.239C224.06 293.944 223.791 294.33 223.433 294.695C223.075 295.059 222.615 295.356 222.053 295.586C221.49 295.817 220.819 295.932 220.039 295.932C218.933 295.932 217.927 295.676 217.019 295.165C216.118 294.647 215.399 293.857 214.862 292.796C214.331 291.729 214.066 290.38 214.066 288.75C214.066 287.082 214.338 285.688 214.881 284.57C215.424 283.451 216.146 282.614 217.048 282.058C217.955 281.502 218.949 281.224 220.03 281.224C220.854 281.224 221.545 281.364 222.101 281.645C222.657 281.92 223.104 282.265 223.443 282.681C223.788 283.09 224.053 283.493 224.239 283.889H224.392V281.415H228.448V296.286C228.448 297.539 228.141 298.588 227.528 299.431C226.914 300.275 226.064 300.908 224.977 301.33C223.897 301.758 222.654 301.972 221.247 301.972ZM221.334 292.863C221.992 292.863 222.548 292.7 223.002 292.374C223.462 292.042 223.814 291.569 224.057 290.955C224.306 290.335 224.431 289.594 224.431 288.731C224.431 287.868 224.309 287.12 224.066 286.487C223.823 285.848 223.472 285.353 223.012 285.001C222.551 284.65 221.992 284.474 221.334 284.474C220.662 284.474 220.097 284.656 219.637 285.02C219.176 285.378 218.828 285.877 218.591 286.516C218.355 287.155 218.237 287.894 218.237 288.731C218.237 289.581 218.355 290.316 218.591 290.936C218.834 291.55 219.183 292.026 219.637 292.365C220.097 292.697 220.662 292.863 221.334 292.863ZM231.775 296.143V276.506H235.86V283.889H235.984C236.163 283.493 236.422 283.09 236.761 282.681C237.106 282.265 237.553 281.92 238.103 281.645C238.659 281.364 239.35 281.224 240.174 281.224C241.248 281.224 242.239 281.505 243.146 282.067C244.054 282.623 244.78 283.464 245.323 284.589C245.866 285.708 246.138 287.111 246.138 288.798C246.138 290.441 245.873 291.828 245.342 292.959C244.818 294.084 244.102 294.938 243.194 295.519C242.293 296.095 241.283 296.382 240.165 296.382C239.372 296.382 238.698 296.251 238.142 295.989C237.592 295.727 237.141 295.398 236.79 295.002C236.438 294.599 236.17 294.193 235.984 293.784H235.802V296.143H231.775ZM235.773 288.779C235.773 289.655 235.895 290.419 236.138 291.07C236.381 291.722 236.732 292.231 237.192 292.595C237.653 292.953 238.212 293.132 238.87 293.132C239.535 293.132 240.097 292.95 240.558 292.585C241.018 292.215 241.366 291.703 241.603 291.051C241.846 290.393 241.967 289.635 241.967 288.779C241.967 287.929 241.849 287.181 241.612 286.535C241.376 285.89 241.028 285.385 240.567 285.02C240.107 284.656 239.541 284.474 238.87 284.474C238.205 284.474 237.643 284.65 237.183 285.001C236.729 285.353 236.381 285.851 236.138 286.497C235.895 287.143 235.773 287.903 235.773 288.779ZM257.368 276.506V296.143H253.216V280.447H253.101L248.604 283.266V279.584L253.466 276.506H257.368ZM262.812 296.143L270.952 280.035V279.9H261.469V276.506H275.247V279.948L267.097 296.143H262.812ZM285.001 296.411C283.646 296.411 282.438 296.162 281.377 295.663C280.322 295.165 279.484 294.477 278.864 293.602C278.244 292.726 277.922 291.722 277.896 290.591H281.923C281.968 291.352 282.287 291.969 282.882 292.442C283.476 292.915 284.183 293.151 285.001 293.151C285.653 293.151 286.228 293.007 286.727 292.72C287.232 292.426 287.625 292.02 287.906 291.502C288.194 290.978 288.337 290.377 288.337 289.699C288.337 289.009 288.19 288.402 287.896 287.878C287.609 287.354 287.209 286.944 286.698 286.65C286.187 286.356 285.602 286.206 284.943 286.2C284.368 286.2 283.809 286.318 283.265 286.555C282.728 286.791 282.31 287.114 282.009 287.523L278.318 286.861L279.248 276.506H291.252V279.9H282.671L282.163 284.819H282.278C282.623 284.333 283.144 283.931 283.841 283.611C284.537 283.291 285.317 283.132 286.18 283.132C287.363 283.132 288.417 283.41 289.344 283.966C290.271 284.522 291.003 285.286 291.54 286.257C292.077 287.222 292.342 288.335 292.336 289.594C292.342 290.917 292.035 292.093 291.415 293.122C290.802 294.145 289.942 294.95 288.836 295.539C287.737 296.12 286.458 296.411 285.001 296.411ZM301.828 274.195V298.463H294.263V295.404H297.878V277.244H294.263V274.195H301.828Z" fill="#EF4444"/>
<g opacity="0.5">
<path d="M45.0072 52.4277C45.6047 51.3447 46.4465 50.397 47.4785 49.72L64.8316 37.6436L47.044 66.9682C47.044 66.9682 45.4961 64.3417 44.8715 63.015C43.3507 59.6303 43.405 55.7582 45.0072 52.4277ZM37.8379 72.6545C38.2452 78.3407 41.0695 83.5666 45.6047 87.0054L64.8045 100.355C64.8045 100.355 52.8012 83.0792 42.6446 65.9122C41.6127 64.098 40.9337 62.1214 40.6079 60.0635C40.4721 59.1429 40.4721 58.1952 40.6079 57.2475C40.3363 57.7349 39.8203 58.7368 39.8203 58.7368C38.7884 60.8217 38.0823 63.0691 37.7564 65.3707C37.5935 67.7806 37.5935 70.2446 37.8379 72.6545ZM86.8014 74.9831C86.1768 73.6563 84.6288 71.0298 84.6288 71.0298L66.8684 100.355L84.2215 88.2781C85.2534 87.6011 86.0953 86.6534 86.6927 85.5703C88.295 82.2398 88.3493 78.3678 86.8014 74.9831V74.9831ZM93.8621 65.3436C93.4547 59.6574 90.6304 54.4315 86.0953 50.9926L66.9227 37.6436C66.9227 37.6436 78.9259 54.9189 89.0825 72.0858C90.1145 73.9 90.7934 75.8767 91.1193 77.9345C91.2551 78.8552 91.2551 79.8029 91.1193 80.7506C91.3908 80.2632 91.9068 79.2613 91.9068 79.2613C92.9388 77.1764 93.6448 74.929 93.9707 72.6274C94.1608 70.1904 94.1608 67.7535 93.9164 65.3165L93.8621 65.3436Z" fill="#EF4444"/>
</g>
</g>
<defs>
<filter id="filter0_i_272_811" x="0" y="-2.42857" width="340" height="342.429" filterUnits="userSpaceOnUse" color-interpolation-filters="sRGB">
<feFlood flood-opacity="0" result="BackgroundImageFix"/>
<feBlend mode="normal" in="SourceGraphic" in2="BackgroundImageFix" result="shape"/>
<feColorMatrix in="SourceAlpha" type="matrix" values="0 0 0 0 0 0 0 0 0 0 0 0 0 0 0 0 0 0 127 0" result="hardAlpha"/>
<feOffset dy="-2.42857"/>
<feGaussianBlur stdDeviation="9.71428"/>
<feComposite in2="hardAlpha" operator="arithmetic" k2="-1" k3="1"/>
<feColorMatrix type="matrix" values="0 0 0 0 1 0 0 0 0 1 0 0 0 0 1 0 0 0 0.2 0"/>
<feBlend mode="normal" in2="shape" result="effect1_innerShadow_272_811"/>
</filter>
</defs>
</svg>
