<svg width="147" height="28" viewBox="0 0 147 28" fill="none" xmlns="http://www.w3.org/2000/svg">
<path d="M39.7227 23.0018V5.54723H51.0749V8.1978H42.8846V12.9364H50.4869V15.587H42.8846V20.3512H51.1431V23.0018H39.7227Z" fill="black"/>
<path d="M68.6445 5.54723V23.0018H65.832L57.6076 11.1126H57.4627V23.0018H54.3008V5.54723H57.1303L65.3462 17.445H65.4996V5.54723H68.6445Z" fill="black"/>
<path d="M81.5756 10.3455C81.4961 9.60121 81.1609 9.02166 80.57 8.60689C79.9847 8.19212 79.2234 7.98473 78.2859 7.98473C77.6268 7.98473 77.0614 8.08416 76.5898 8.28303C76.1183 8.48189 75.7575 8.75178 75.5075 9.09268C75.2575 9.43359 75.1296 9.8228 75.1239 10.2603C75.1239 10.6239 75.2063 10.9393 75.3711 11.2063C75.5415 11.4734 75.7717 11.7006 76.0614 11.8881C76.3512 12.07 76.6722 12.2234 77.0245 12.3484C77.3768 12.4734 77.7319 12.5785 78.0898 12.6637L79.7262 13.0728C80.3853 13.2262 81.0188 13.4336 81.6268 13.695C82.2404 13.9563 82.7887 14.2859 83.2717 14.6836C83.7603 15.0813 84.1467 15.5614 84.4308 16.1239C84.7148 16.6864 84.8569 17.3455 84.8569 18.1012C84.8569 19.1239 84.5955 20.0245 84.0728 20.8029C83.5501 21.5756 82.7944 22.1808 81.8058 22.6183C80.8228 23.0501 79.6325 23.266 78.2347 23.266C76.8768 23.266 75.6978 23.0558 74.6978 22.6353C73.7035 22.2148 72.9251 21.6012 72.3626 20.7944C71.8058 19.9876 71.5046 19.0046 71.4592 17.8455H74.57C74.6154 18.4535 74.8029 18.9592 75.1325 19.3626C75.462 19.766 75.891 20.0671 76.4194 20.266C76.9535 20.4648 77.5501 20.5643 78.2092 20.5643C78.8967 20.5643 79.4989 20.462 80.016 20.2575C80.5387 20.0472 80.9478 19.7575 81.2433 19.3881C81.5387 19.0131 81.6893 18.5756 81.695 18.0756C81.6893 17.6211 81.5558 17.2461 81.2944 16.9506C81.033 16.6495 80.6665 16.3995 80.195 16.2006C79.729 15.9961 79.1836 15.8143 78.5586 15.6552L76.5728 15.1438C75.1353 14.7745 73.9989 14.2148 73.1637 13.4648C72.3342 12.7092 71.9194 11.7063 71.9194 10.4563C71.9194 9.42791 72.1978 8.52734 72.7546 7.75462C73.3171 6.98189 74.0813 6.38246 75.0472 5.95632C76.0131 5.5245 77.1069 5.30859 78.3285 5.30859C79.5671 5.30859 80.6523 5.5245 81.5842 5.95632C82.5217 6.38246 83.2575 6.97621 83.7915 7.73757C84.3256 8.49325 84.6012 9.36257 84.6183 10.3455H81.5756Z" fill="black"/>
<path d="M102.02 5.54723V23.0018H99.207L90.9826 11.1126H90.8377V23.0018H87.6758V5.54723H90.5053L98.7212 17.445H98.8746V5.54723H102.02Z" fill="black"/>
<path d="M111.039 23.2575C109.76 23.2575 108.652 22.9762 107.715 22.4137C106.777 21.8512 106.05 21.0643 105.533 20.0529C105.022 19.0415 104.766 17.8597 104.766 16.5075C104.766 15.1552 105.022 13.9705 105.533 12.9535C106.05 11.9364 106.777 11.1467 107.715 10.5842C108.652 10.0217 109.76 9.74041 111.039 9.74041C112.317 9.74041 113.425 10.0217 114.363 10.5842C115.3 11.1467 116.025 11.9364 116.536 12.9535C117.053 13.9705 117.311 15.1552 117.311 16.5075C117.311 17.8597 117.053 19.0415 116.536 20.0529C116.025 21.0643 115.3 21.8512 114.363 22.4137C113.425 22.9762 112.317 23.2575 111.039 23.2575ZM111.056 20.7859C111.749 20.7859 112.328 20.5955 112.794 20.2148C113.26 19.8285 113.607 19.3114 113.834 18.6637C114.067 18.016 114.184 17.2944 114.184 16.4989C114.184 15.6978 114.067 14.9734 113.834 14.3256C113.607 13.6722 113.26 13.1523 112.794 12.766C112.328 12.3796 111.749 12.1864 111.056 12.1864C110.346 12.1864 109.755 12.3796 109.283 12.766C108.817 13.1523 108.468 13.6722 108.235 14.3256C108.007 14.9734 107.894 15.6978 107.894 16.4989C107.894 17.2944 108.007 18.016 108.235 18.6637C108.468 19.3114 108.817 19.8285 109.283 20.2148C109.755 20.5955 110.346 20.7859 111.056 20.7859Z" fill="black"/>
<path d="M124.788 23.2319C123.76 23.2319 122.839 22.9677 122.027 22.4393C121.214 21.9109 120.572 21.1438 120.1 20.1381C119.629 19.1325 119.393 17.9109 119.393 16.4734C119.393 15.0188 119.632 13.7915 120.109 12.7915C120.592 11.7859 121.243 11.0273 122.061 10.516C122.879 9.99894 123.791 9.74041 124.797 9.74041C125.564 9.74041 126.194 9.87109 126.689 10.1325C127.183 10.3881 127.575 10.6978 127.865 11.0614C128.154 11.4194 128.379 11.7575 128.538 12.0756H128.666V5.54723H131.76V23.0018H128.725V20.9393H128.538C128.379 21.2575 128.149 21.5955 127.848 21.9535C127.547 22.3058 127.149 22.6069 126.654 22.8569C126.16 23.1069 125.538 23.2319 124.788 23.2319ZM125.649 20.7006C126.302 20.7006 126.859 20.5245 127.319 20.1722C127.779 19.8143 128.129 19.3171 128.368 18.6808C128.606 18.0444 128.725 17.3029 128.725 16.4563C128.725 15.6097 128.606 14.8739 128.368 14.2489C128.135 13.6239 127.788 13.1381 127.328 12.7915C126.873 12.445 126.314 12.2717 125.649 12.2717C124.961 12.2717 124.387 12.4506 123.927 12.8086C123.467 13.1665 123.12 13.6609 122.887 14.2915C122.654 14.9222 122.538 15.6438 122.538 16.4563C122.538 17.2745 122.654 18.0046 122.887 18.6467C123.126 19.283 123.475 19.7859 123.936 20.1552C124.402 20.5188 124.973 20.7006 125.649 20.7006Z" fill="black"/>
<path d="M140.843 23.2575C139.53 23.2575 138.397 22.9847 137.442 22.4393C136.493 21.8881 135.763 21.1097 135.252 20.104C134.74 19.0927 134.485 17.9023 134.485 16.533C134.485 15.1864 134.74 14.0046 135.252 12.9876C135.769 11.9648 136.49 11.1694 137.417 10.6012C138.343 10.0273 139.431 9.74041 140.681 9.74041C141.488 9.74041 142.249 9.87109 142.965 10.1325C143.686 10.3881 144.323 10.7859 144.874 11.3256C145.431 11.8654 145.868 12.5529 146.186 13.3881C146.505 14.2177 146.664 15.2063 146.664 16.354V17.3001H135.934V15.2205H143.706C143.701 14.6296 143.573 14.104 143.323 13.6438C143.073 13.1779 142.723 12.8114 142.275 12.5444C141.831 12.2773 141.314 12.1438 140.723 12.1438C140.093 12.1438 139.539 12.2972 139.061 12.604C138.584 12.9052 138.212 13.3029 137.945 13.7972C137.684 14.2859 137.55 14.8228 137.544 15.408V17.2234C137.544 17.9847 137.684 18.6381 137.962 19.1836C138.24 19.7234 138.63 20.1381 139.13 20.4279C139.63 20.712 140.215 20.854 140.885 20.854C141.334 20.854 141.74 20.7915 142.104 20.6665C142.468 20.5359 142.783 20.3455 143.05 20.0955C143.317 19.8455 143.519 19.5359 143.655 19.1665L146.536 19.4904C146.354 20.2518 146.007 20.9165 145.496 21.4847C144.99 22.0472 144.343 22.4847 143.553 22.7972C142.763 23.104 141.86 23.2575 140.843 23.2575Z" fill="black"/>
<g clip-path="url(#clip0_3067_31)">
<path d="M24 1H4C2.34315 1 1 2.34315 1 4V24C1 25.6569 2.34315 27 4 27H24C25.6569 27 27 25.6569 27 24V4C27 2.34315 25.6569 1 24 1Z" fill="#528BFF" stroke="black" stroke-width="2"/>
<path d="M8.11509 12.4324C8.29734 12.8207 8.749 13.5893 8.749 13.5893L13.939 5.00781L8.86785 8.54183C8.56675 8.73992 8.32111 9.01726 8.14679 9.33421C7.67928 10.3088 7.67136 11.4419 8.11509 12.4324Z" fill="url(#paint0_linear_3067_31)"/>
<path d="M6.05691 15.2548C6.17576 16.9188 6.99984 18.4481 8.32311 19.4544L13.9252 23.3608C13.9252 23.3608 10.4229 18.3054 7.45942 13.2817C7.15831 12.7509 6.96022 12.1724 6.86513 11.5702C6.82551 11.3008 6.82551 11.0235 6.86513 10.7461C6.7859 10.8888 6.63534 11.1819 6.63534 11.1819C6.33424 11.7921 6.12822 12.4497 6.03313 13.1233C5.98559 13.8285 5.98559 14.5496 6.05691 15.2548Z" fill="white"/>
<path d="M20.3513 15.9342C20.1691 15.5459 19.7174 14.7773 19.7174 14.7773L14.5273 23.3588L19.5907 19.8248C19.8918 19.6267 20.1374 19.3494 20.3117 19.0324C20.7871 18.0499 20.7951 16.9168 20.3513 15.9342Z" fill="url(#paint1_linear_3067_31)"/>
<path d="M22.4113 13.106C22.2924 11.4421 21.4684 9.91276 20.1451 8.90643L14.543 5C14.543 5 18.0453 10.0554 21.0088 15.0791C21.3099 15.61 21.508 16.1884 21.6031 16.7906C21.6427 17.06 21.6427 17.3374 21.6031 17.6147C21.6823 17.4721 21.8329 17.1789 21.8329 17.1789C22.134 16.5687 22.34 15.9111 22.4351 15.2376C22.4826 14.5323 22.4826 13.8192 22.4113 13.106Z" fill="white"/>
<path d="M8.14879 9.33421C8.32311 9.01726 8.56875 8.73992 8.86986 8.54183L13.9332 5.00781L8.74307 13.5893C8.74307 13.5893 8.29142 12.8207 8.10917 12.4324C7.66544 11.4419 7.68129 10.3088 8.14879 9.33421ZM6.05691 15.2533C6.17576 16.9173 6.99984 18.4466 8.32311 19.4529L13.9252 23.3593C13.9252 23.3593 10.4229 18.304 7.45942 13.2803C7.15831 12.7494 6.96022 12.1709 6.86513 11.5687C6.82551 11.2993 6.82551 11.022 6.86513 10.7446C6.7859 10.8873 6.63534 11.1805 6.63534 11.1805C6.33424 11.7906 6.12822 12.4483 6.03313 13.1218C5.98559 13.827 5.98559 14.5481 6.05691 15.2533ZM20.3435 15.9347C20.1613 15.5465 19.7096 14.7779 19.7096 14.7779L14.5274 23.3593L19.5908 19.8253C19.8919 19.6272 20.1375 19.3499 20.3118 19.0329C20.7793 18.0583 20.7952 16.9252 20.3435 15.9347ZM22.4037 13.1139C22.2849 11.4499 21.4608 9.92057 20.1375 8.91425L14.5433 5.00781C14.5433 5.00781 18.0456 10.0632 21.0091 15.0869C21.3102 15.6178 21.5083 16.1962 21.6034 16.7984C21.643 17.0678 21.643 17.3452 21.6034 17.6225C21.6826 17.4799 21.8332 17.1867 21.8332 17.1867C22.1343 16.5766 22.3403 15.9189 22.4354 15.2454C22.4909 14.5322 22.4909 13.8191 22.4196 13.1059L22.4037 13.1139Z" fill="white"/>
</g>
<defs>
<linearGradient id="paint0_linear_3067_31" x1="14.16" y1="5.21238" x2="7.49758" y2="12.4349" gradientUnits="userSpaceOnUse">
<stop offset="0.58" stop-color="#A0A8D4"/>
<stop offset="0.73" stop-color="#8791C7"/>
<stop offset="0.91" stop-color="#6470B4"/>
</linearGradient>
<linearGradient id="paint1_linear_3067_31" x1="14.3054" y1="23.1498" x2="20.9688" y2="15.9286" gradientUnits="userSpaceOnUse">
<stop offset="0.58" stop-color="#A0A8D4"/>
<stop offset="0.73" stop-color="#8791C7"/>
<stop offset="0.91" stop-color="#6470B4"/>
</linearGradient>
<clipPath id="clip0_3067_31">
<rect width="28" height="28" fill="white"/>
</clipPath>
</defs>
</svg>
